<mxfile host="65bd71144e">
    <diagram id="wXW9t7doDY4xpnGTCczw" name="第 1 页">
        <mxGraphModel dx="819" dy="492" grid="1" gridSize="10" guides="1" tooltips="1" connect="1" arrows="1" fold="1" page="1" pageScale="1" pageWidth="827" pageHeight="1169" math="0" shadow="0">
            <root>
                <mxCell id="0"/>
                <mxCell id="1" parent="0"/>
                <mxCell id="2" value="" style="rounded=0;whiteSpace=wrap;html=1;" vertex="1" parent="1">
                    <mxGeometry x="90" y="110" width="250" height="300" as="geometry"/>
                </mxCell>
                <mxCell id="3" value="RunParams" style="rounded=0;whiteSpace=wrap;html=1;" vertex="1" parent="1">
                    <mxGeometry x="155" y="180" width="120" height="40" as="geometry"/>
                </mxCell>
                <mxCell id="4" value="RunParams" style="rounded=0;whiteSpace=wrap;html=1;" vertex="1" parent="1">
                    <mxGeometry x="155" y="260" width="145" height="100" as="geometry"/>
                </mxCell>
            </root>
        </mxGraphModel>
    </diagram>
</mxfile>